<?xml version="1.0" encoding="utf-8"?>
<!-- Generator: Adobe Illustrator 24.3.0, SVG Export Plug-In . SVG Version: 6.00 Build 0)  -->
<svg version="1.1" id="svg" xmlns="http://www.w3.org/2000/svg" xmlns:xlink="http://www.w3.org/1999/xlink" x="0px" y="0px"
	 viewBox="0 0 400 103.3" style="enable-background:new 0 0 400 103.3;" xml:space="preserve">
<style type="text/css">
	.st0{fill-rule:evenodd;clip-rule:evenodd;fill:#5FC841;}
	.st1{fill-rule:evenodd;clip-rule:evenodd;fill:#24C4D6;}
	.st2{fill-rule:evenodd;clip-rule:evenodd;fill:#1CDAEC;}
	.st3{fill-rule:evenodd;clip-rule:evenodd;fill:#349C2C;}
	.st4{fill-rule:evenodd;clip-rule:evenodd;fill:#FFFFFF;}
	.st5{fill-rule:evenodd;clip-rule:evenodd;fill:#4C4C4C;}
</style>
<g id="svgg">
	<path id="path0" class="st0" d="M35.5,11.4c0,0.1-0.1,1.3-0.2,2.6c-0.2,2.7-0.2,2.7,0.8,2.6c2.7-0.3,3.7-3.2,1.6-4.9
		C37.1,11.1,35.5,10.9,35.5,11.4 M39.7,17.8c-0.2,0.1-0.9,0.4-1.5,0.7c-0.9,0.4-1.3,0.5-2.1,0.5c-1,0-1,0-1.1,0.5
		c-0.1,0.6,0,0.8,0.4,0.8c0.4,0,2,1.1,2.2,1.4c1.2,2.2,4.7,2.1,5.4-0.1C43.7,19.4,41.8,17.1,39.7,17.8 M42.8,25.7
		c-1.9,0.9-2.4,0.9-6.8,0.1c-2.2-0.4-2.2-0.4-2.3,0.2c-0.1,0.7-0.1,0.7,1.9,1c4.7,0.8,5,0.9,6.4,2.4c0.9,1,1.2,1.1,1.3,0.5
		c0.3-1.4,0.8-4.2,0.7-4.5C43.9,25.2,43.8,25.2,42.8,25.7 M32.6,32.2c-0.3,0.8-0.2,1,0.9,1.2c0.6,0.1,2.3,0.4,3.9,0.7
		c1.6,0.3,3.2,0.6,3.6,0.7c0.4,0,0.8,0.2,1,0.3c0.4,0.2,0.4,0.1,0.6-0.9l0.1-0.6h-0.8c-0.4,0-1.9-0.2-3.2-0.5
		c-1.3-0.3-3-0.6-3.6-0.7c-0.6-0.1-1.4-0.2-1.7-0.3C32.8,32,32.7,32,32.6,32.2 M41,38.4c-0.3,0.1-0.6,0.2-0.6,0.2c0,0-0.5,0.2-1,0.4
		c-1.1,0.5-1.5,0.5-4.4-0.1c-2.7-0.6-3.4-0.6-3.6-0.2c-0.2,0.5-0.1,0.9,0.3,1c0.2,0,1.3,0.2,2.4,0.4c3.5,0.6,4.1,0.9,5.4,2.1
		c1.5,1.5,1.6,1.5,2-1.6C41.9,37.9,41.9,38,41,38.4 M34.7,43.7c-0.2,0.1-0.8,0.4-1.2,0.7c-0.7,0.5-0.9,0.5-1.9,0.6
		c-1,0-1.2,0.1-1.2,0.4c-0.2,0.6-0.1,0.9,0.2,0.9c0.4,0,2.2,1.1,2.2,1.3c0,1,2.6,2.1,3.8,1.6C39.8,47.9,38.1,42.7,34.7,43.7
		 M22,52.9c-0.1,0-0.2,0.2-0.2,0.4c0,0.2-0.2,1.2-0.4,2.3l-0.5,2.1l0.5,0.4c0.8,0.7,2.3,0.5,3.6-0.4c0.5-0.3,0.9-0.5,1.8-0.5
		l1.2-0.1l0.1-0.5c0-0.4,0-0.5-0.2-0.5c-0.5,0-1.5-0.7-2.5-1.7C24.2,53.1,23,52.6,22,52.9 M16.6,59c-0.1,0.3-0.2,1.5-0.4,2.7
		c-0.4,2.7-0.3,2.7,2.1,1.6c1.4-0.7,2.1-0.7,4.1-0.3c4.2,0.9,4.6,0.8,4.5-0.1c0-0.4-0.2-0.4-0.9-0.5c-5.1-0.8-5.8-1-7.2-2.5
		C17.5,58.4,16.7,58.2,16.6,59 M16,67.4c0,0.1,0,0.4-0.1,0.7c-0.1,0.5-0.1,0.5,0.6,0.5c0.4,0,1.7,0.2,2.8,0.5
		c1.1,0.2,2.4,0.5,2.8,0.5c0.4,0,1.3,0.2,2,0.3c1.6,0.3,1.6,0.3,1.6-0.5l0-0.5l-1.6-0.3c-0.9-0.2-3-0.6-4.8-0.9
		C15.8,67.1,16,67.1,16,67.4 M13.3,71.5c0,0.1-0.3,1.2-0.7,2.3c-0.7,2.5-0.7,2.5,0,2.9c0.9,0.5,1.9,0.4,3.3-0.4
		c1.4-0.7,2.7-0.7,6.3,0c1.1,0.2,2.1,0.4,2.1,0.4c0,0,0.1-0.3,0.2-0.6l0.1-0.6l-2-0.4c-1.1-0.2-2.3-0.4-2.8-0.5
		c-1.2-0.1-2.4-0.8-3.4-1.8C15.2,71.4,13.5,70.7,13.3,71.5 M17.9,78.8c-0.2,0.1-0.7,2.8-1,4.8l-0.1,0.7l1.2,0c1.1,0,1.3-0.1,2-0.5
		c0.6-0.4,0.9-0.5,2-0.6c1.3-0.1,1.3-0.1,1.4-0.6c0.1-0.6,0-0.8-0.3-0.8c-0.5,0-1.5-0.7-2.5-1.7c-0.5-0.6-1.1-1.1-1.3-1.2
		C18.6,78.8,18.1,78.7,17.9,78.8 M21.5,85.7c-0.2,0.2-0.2,0.2,0.1,0.1c0.3-0.1,0.4,0,0.3,0.2c0,0.2-0.3,1.1-0.6,2.2
		c-0.6,2.2-0.6,2.1-0.9,1.8c-0.3-0.2-0.3,0,0,0.3c0.4,0.5,2.2,0.8,3,0.5c2.1-0.7,2.4-4,0.5-5C23.3,85.6,21.8,85.5,21.5,85.7"/>
	<path id="path1" class="st1" d="M10.8,18.5c-2.6,1-2,5,0.8,5.3c1,0.1,2.8-0.5,2.6-0.8c0-0.1,0.1-0.6,0.3-1.3
		c0.4-1.6,0.4-1.8-0.3-2.5C13.3,18.4,12,18.1,10.8,18.5 M17.6,27.6c-0.1,0.1-0.2,0.2-0.3,0.1c-0.1-0.1-0.9,1-1,1.4
		c-0.1,0.7-0.1,1.6,0,1.8c0.1,0.1,0.2,0.3,0.2,0.5c0,0.3,1,1.2,1,1c0-0.1,0.1,0,0.2,0.1c0.3,0.3,1.6,0.3,2.4,0
		c0.4-0.2,0.7-0.3,0.7-0.3c0,0,0.2-0.1,0.4-0.2c0.2-0.1,0.4-0.1,0.5-0.1c0.1,0.1,0.1,0,0.1-0.1c0-0.2,0.4-0.3,1.5-0.4
		c0.8-0.1,0.6-0.8-0.2-1.3c-0.4-0.2-0.8-0.4-0.8-0.5c0-0.2-1.2-1.6-1.7-2C20.2,27.4,17.9,27.3,17.6,27.6 M19.6,34.4
		c-3.6,1.3-1.8,6.3,1.9,5.2c0.6-0.2,0.9-0.9,1.3-3.6C22.9,34.7,21.2,33.8,19.6,34.4 M33.7,57.6l0.1,2.8l0.5,0c2.9-0.2,2.9-5.2,0-5.5
		l-0.6-0.1L33.7,57.6 M36.9,62.3c-0.2,0.1-0.4,0.2-0.5,0.3c-0.1,0.1-0.2,0.1-0.3,0.1s-0.2,0-0.3,0.1c-0.1,0.1,0,0.2,0.1,0.1
		c0.1-0.1,0.2,0.5,0.2,2.1c0,2,0,2.2-0.3,2.1c-0.2-0.1,0,0.1,0.4,0.4c2.2,1.5,5-0.7,4.1-3.2C39.9,62.8,38.1,61.8,36.9,62.3
		 M38.7,69.5c-0.2,0.1-0.7,0.3-1.1,0.6l-0.7,0.5v1.3c0,2.2,1.7,3.4,3.7,2.6C43.5,73.2,41.7,68.6,38.7,69.5 M34.4,75.5
		c-0.5,0.3-0.6,4.7-0.1,5.1c0.9,0.7,2.9,0.1,3.7-1C39.5,77.3,36.8,74.3,34.4,75.5 M29,83.4c0,2.8,0.1,3.1,0.7,2.9
		c2.7-0.7,2.7-5.1,0-5.4L29,80.8L29,83.4"/>
	<path id="path2" class="st2" d="M28.3,16.1c-0.2,0.1-0.5,0.2-0.5,0.2s-0.2,0.1-0.4,0.4s-0.4,0.6-0.5,0.7c-0.1,0.1-0.1,0.3-0.1,0.5
		c0.1,0.2,0,0.2-0.1,0.2c-0.1-0.1-0.2,0.1-0.1,0.7c0.3,2.6,2.2,3.4,4.9,2.1c1.1-0.5,1.6-0.6,2.3-0.6c0.8,0,0.9,0,1-0.4
		c0.2-0.7,0.2-0.8-0.5-0.9c-0.9-0.2-1.5-0.6-2.3-1.5C31,16,29.4,15.5,28.3,16.1 M14.6,21.5c-0.4,1.7-0.4,1.7,0.6,1.3l0.8-0.3
		l3.2,0.6c3.8,0.7,3.7,0.7,3.9,0.2c0.2-0.8,0.1-1-0.4-1c-0.4,0-5.9-1.1-6.5-1.3c-0.1,0-0.5-0.3-0.8-0.5l-0.5-0.5L14.6,21.5
		 M16.8,28.1c-0.3,0.3-0.5,0.7-0.4,0.7c0,0,0.2-0.2,0.4-0.5C17.2,27.8,17.2,27.7,16.8,28.1 M22.2,29.5c0.1,0.2,0.5,0.5,0.9,0.8
		c0.7,0.4,1,1.3,0.4,1.2c-0.2,0-0.2,0-0.1,0.1c0.1,0.1,1.1,0.3,2.2,0.5c1.1,0.2,3.1,0.6,4.3,0.8c2.4,0.4,2.4,0.4,2.6-0.4l0.1-0.5
		l-1.9-0.4c-1-0.2-2.2-0.4-2.7-0.5c-2.5-0.3-5.1-1-5.7-1.6L22,29.1L22.2,29.5 M22.8,36c-0.4,2.6-0.7,3.5-1.1,3.6
		c-0.3,0.1-0.4,0.1-0.4,0.2c0.1,0.1,1.3-0.3,1.3-0.4c0-0.2,1.7-0.8,2.2-0.8c0.3,0,1.8,0.3,3.4,0.6c3,0.6,3.1,0.6,3.2-0.2l0.1-0.5
		l-2.8-0.5c-1.5-0.3-2.9-0.5-3.1-0.5c-0.4,0-1.5-0.7-2.2-1.4l-0.6-0.6L22.8,36 M23.3,42.1c-1.7,0.9-2,3-0.5,4.6
		c0.8,0.8,2.5,0.8,4.2-0.1c0.9-0.5,1.3-0.6,2.1-0.6c0.9,0,1,0,1-0.3c0-0.2,0-0.4,0.1-0.6c0.1-0.2-0.1-0.3-0.5-0.4
		c-0.7-0.1-1.9-1-2.5-1.7C26.4,41.8,24.6,41.4,23.3,42.1 M28.1,48.5c-2.1,0.7-2.3,4.1-0.3,5c2.6,1.3,5.2-1.2,3.9-3.8
		C31.1,48.5,29.5,48,28.1,48.5 M32.5,55c-0.1,0.1-0.6,0.3-1.1,0.6c-0.7,0.4-1,0.5-2,0.5c-1.1,0-1.1,0-1.2,0.4
		c-0.1,0.2-0.1,0.5-0.2,0.6c0,0.1,0.1,0.2,0.3,0.2c0.6,0,1.4,0.5,2.5,1.6c1.1,1,1.7,1.4,2.5,1.5l0.4,0.1l-0.1-2.8l-0.1-2.8l-0.4,0
		C32.9,54.9,32.6,54.9,32.5,55 M36.2,62.7c-0.2,0.2-0.3,0.3-0.4,0.3c0,0-0.3,0.1-0.7,0.3c-0.7,0.5-2.8,0.4-5.8-0.3
		c-2.3-0.5-2.2-0.5-2.4,0.3l-0.1,0.6l2.4,0.4c1.3,0.2,2.7,0.5,3.1,0.5c0.9,0.1,1.4,0.4,2.3,1.2c0.4,0.4,0.8,0.7,0.9,0.7
		c0.1,0,0.1,0.1,0.1,0.1c-0.1,0.1,0.1,0.2,0.2,0.2c0.3,0.1,0.3,0,0.3-2c0-1.7,0-2.2,0.3-2.4c0.2-0.2,0.2-0.3,0.2-0.3
		C36.6,62.3,36.4,62.5,36.2,62.7 M25.9,69.2c-0.3,1.1-0.3,1.1,1.5,1.4c7.3,1.2,7.8,1.4,9.2,2.8c1.8,1.9,4.1,2,5.1,0.3l0.3-0.6
		l-0.5,0.6c-1.8,2.1-4.7,1-4.7-1.8v-1.3l0.7-0.5c0.4-0.3,0.9-0.5,1.1-0.6c0.3-0.1,0.3-0.1,0.1-0.1c-0.2,0-0.8,0.2-1.4,0.5
		c-1.8,0.8-2,0.9-4.9,0.3c-1.5-0.3-3.3-0.6-4.2-0.8c-0.8-0.1-1.7-0.3-1.9-0.3C26.1,69,26,69.1,25.9,69.2 M39.7,69.4
		c0,0,0.3,0.1,0.6,0.2c0.4,0.1,0.4,0.1,0.2-0.1C40.3,69.4,39.5,69.2,39.7,69.4 M24.8,75.7c-0.3,1.1-0.3,1.1,0.7,1.2
		c3.7,0.4,6.4,1.2,7.2,2.2c0.3,0.3,0.7,0.7,0.9,0.9l0.4,0.4l0-2.3c0-1.2,0-2.3,0.1-2.4c0.1-0.1-0.3,0.1-0.8,0.3
		c-1.1,0.6-2,0.7-3.8,0.3c-0.6-0.1-1.7-0.3-2.4-0.4c-0.8-0.1-1.6-0.2-1.8-0.3C25,75.5,24.8,75.5,24.8,75.7 M26.7,81.4
		c-0.9,0.5-1.2,0.6-2.1,0.6c-1,0-1.1,0-1.1,0.4c0,0.2,0,0.5-0.1,0.7c-0.1,0.2,0,0.3,0.3,0.3c0.7,0,1.4,0.5,2.4,1.5
		c1.2,1.2,3.3,2.1,2.9,1.2C29,85.9,29,84.7,29,83.3v-2.5l-0.6,0C28,80.8,27.3,81.1,26.7,81.4"/>
	<path id="path3" class="st3" d="M34.5,11.4c-1.7,0.9-1.8,3.6-0.2,4.8c0.7,0.5,0.8,0.4,0.9-1.7c0.1-0.9,0.2-2,0.2-2.5
		C35.6,11.1,35.3,11,34.5,11.4 M44,25.5c0,0.3-0.5,3.3-0.8,4.4c-0.1,0.3-0.2,0.4-0.3,0.3c-0.5-0.2-0.2,0.1,0.3,0.3
		c2.8,1.2,5.3-2,3.5-4.3C45.9,25.3,44,24.7,44,25.5 M45.3,32.3c-1.1,0.2-2.6,1.2-2.7,1.8c-0.2,0.9-0.2,1.1-0.4,0.9
		c-0.1-0.1,0.3,0.4,1,1c1.5,1.4,2.2,1.8,3.2,1.7c3.1-0.3,3.6-4.7,0.5-5.4C46.2,32.2,46.1,32.2,45.3,32.3 M41.8,38.7
		c-0.2,1.6-0.8,4.5-0.9,4.6c-0.1,0.1-0.3,0-0.5-0.1c-0.3-0.2-0.3-0.2-0.2,0c1.3,1.6,4.7,0,4.7-2.2C45,39.1,42,37,41.8,38.7
		 M21.1,53.5c-1.3,0.9-1.5,3.1-0.3,4.2c0.3,0.3,0.4,0.3,0.3,0.1c-0.1-0.2,0.1-1.2,0.3-2.3C22,53,22,52.9,21.1,53.5 M15.3,58.5
		c-2.1,0.4-2.6,3.8-0.8,5c1,0.6,1.4,0.6,1.4,0c0-0.3,0.2-1.5,0.4-2.7C16.7,58.2,16.7,58.2,15.3,58.5 M11,64.6
		c-2.3,0.8-2.1,4.5,0.3,5.2c1.7,0.5,4.5-0.6,4.6-1.9c0.1-0.4,0.2-0.7,0.2-0.7c0.1,0-0.4-0.6-1.1-1.2C13.6,64.4,12.5,64,11,64.6
		 M12.2,71.8c-1.2,0.8-1.5,2.3-0.9,3.7c0.5,1,0.5,1,1.2-1.4c0.3-1.2,0.7-2.3,0.7-2.4C13.4,71.2,13,71.3,12.2,71.8 M17.2,78.8
		c-2,0.7-2.7,3.1-1.3,4.6c0.8,0.9,0.9,0.9,1,0.1c0.4-2.7,0.9-4.6,1-4.7C18.1,78.7,17.5,78.6,17.2,78.8 M21.5,85.8
		c-0.2,0.1-0.5,0.1-0.5,0.1c0,0-0.2,0.1-0.5,0.3c-0.2,0.2-0.3,0.3-0.2,0.2c0.1-0.1,0.1,0.1-0.2,0.4c-0.4,0.6-0.5,1.5-0.3,2.4
		c0.1,0.3,0.8,1,0.9,0.9c0.1-0.1,1.3-4.4,1.2-4.4C21.9,85.7,21.7,85.8,21.5,85.8"/>
	<path id="path4" class="st4" d="M231,50.6l0,13.8h1.4h1.4l0-13.8l0-13.8h-1.5H231L231,50.6 M264,50.7v13.8h1.3h1.3v-1.7V61l1,1
		c4,4,11.3,3.3,14.6-1.5c2.2-3.3,2.2-8.6,0-11.9c-3.1-4.6-10.7-5.4-14.5-1.5l-0.9,0.9v-5.6v-5.6h-1.4H264V50.7 M310.7,50.7v13.8h1.4
		h1.4V50.7V36.8h-1.4h-1.4V50.7 M72.2,38.4c-3,0.5-8,3.5-8,4.9c0,0.1-0.1,0.2-0.2,0.3c-0.3,0.1-1.7,2.9-2,4.2
		c-0.2,0.8-0.3,1.5-0.2,4l0.1,3l0.6,1.6c2.6,6.5,10.5,10,17,7.7c0.5-0.2,1.2-0.4,1.6-0.6c1-0.3,3.1-1.8,3.4-2.3
		c0.3-0.5,0.2-0.8-0.9-1.7l-0.7-0.6l-1.3,1c-3.3,2.5-8.6,2.7-12,0.5c-0.3-0.2-0.7-0.5-0.9-0.6c-3.2-1.9-4.9-7.6-3.6-11.7
		c2.3-6.9,11.3-9.5,16.9-4.9c1,0.8,0.9,0.9,1.9-0.1c1-1,1-1.2-0.5-2.3C80.5,38.5,76.4,37.7,72.2,38.4 M211.7,38.4
		c-1.9,0.3-4.7,1.5-5.4,2.2c-0.2,0.2-0.4,0.4-0.5,0.4c-0.2,0-1.7,1.5-2.4,2.4c-3.2,4-3.2,11.6,0.1,15.9c1.4,1.8,4.2,4,5.1,4
		c0.1,0,0.3,0.1,0.4,0.2c0.1,0.1,0.8,0.4,1.7,0.6c4,1.2,8.4,0.5,12.4-1.8c0.2-0.1,0.5-0.4,0.7-0.6l0.4-0.4v-5.1v-5.1h-1.4h-1.4v4.4
		v4.4l-0.7,0.4c-5.5,3.3-13.4,0.9-15.8-4.9c-4.4-10.3,8.2-19.3,17.1-12.1l0.6,0.5l0.5-0.3c1-0.7,1.4-1.5,1.1-1.9
		C222,39,216.6,37.6,211.7,38.4 M330.7,51.4v13.1l1.5,0l1.5,0l0-13l0-13h-1.5h-1.5V51.4 M93.8,44.8c-1.7,0.3-3.9,1.2-4.9,2
		c-0.7,0.5-0.7,0.6-0.1,1.5c0.3,0.4,0.5,0.8,0.5,0.9c0,0.4,0.4,0.3,1-0.1c4.8-3.8,11.2-1.8,11.2,3.4l0,0.7l-3.5,0
		c-5.8,0-7.7,0.5-9.1,2.3c-1.5,1.8-1.4,5.2,0.2,6.9c2.7,2.9,8.7,3,11.7,0.1l0.8-0.8v1.4v1.4l1.3,0l1.3,0l0.1-6.8
		c0.1-8.4-0.1-9.4-2-11.1C100.6,45,96.9,44.2,93.8,44.8 M111.2,44.8c-0.2,0.1-0.2,2.2-0.2,9.9l0,9.7l1.4,0l1.4,0l0.1-6.1
		c0.1-5.2,0.1-6.3,0.3-7c1.5-4.5,7.9-5.7,10.8-2.1c0.9,1.2,1,1.9,1.1,8.9l0.1,6.3h1.4h1.4l-0.1-7l-0.1-7l-0.5-1.3
		c-0.5-1.3-1.6-2.8-2.6-3.4c-1.9-1.1-2.2-1.1-4.3-1.2c-3.3-0.1-5.3,0.5-7,2.3l-0.9,0.9l0-1.5l0-1.5l-1.2,0
		C111.9,44.7,111.3,44.7,111.2,44.8 M140.5,44.8c-1.1,0.2-1.9,0.4-2.7,0.8c-0.5,0.2-0.9,0.4-1,0.4c-0.2,0-1.8,1.2-1.8,1.4
		c0,0.2,1.2,2.1,1.3,2.1c0.1,0,0.4-0.2,0.7-0.5c4.9-3.8,11.2-1.8,11.2,3.4v0.7l-3.5,0c-6.5,0-8.8,0.8-9.9,3.4
		c-0.4,0.9-0.3,3.9,0.1,4.6c2,3.9,9.2,4.6,12.7,1.2l0.7-0.7v1.4v1.4l1.3,0l1.3,0l0.1-6.8c0.1-8.4-0.1-9.4-2.1-11.2
		C147.3,45,143.5,44.2,140.5,44.8 M157.9,44.8c-0.2,0.1-0.2,2.2-0.2,9.9l0,9.7l1.5,0l1.5,0l0-5.5c0-3.7,0.1-5.9,0.2-6.7
		c0.5-2.8,2.7-4.6,5.7-4.9l1.2-0.1V46v-1.3h-0.9c-2.6,0-6.1,1.8-6.3,3.2c0,0.1-0.1-0.6-0.1-1.5l-0.1-1.7l-1.2,0
		C158.6,44.7,158,44.7,157.9,44.8 M169.6,44.9c-0.1,0.2,0.2,1,1,2.7c0.2,0.5,0.7,1.5,1.1,2.4c1.7,3.7,2.2,5,2.7,5.9
		c0.3,0.6,0.5,1.1,0.5,1.1c0,0.1,0.3,0.7,0.6,1.5c0.6,1.4,1.5,3.3,2.2,4.9l0.4,0.8l-0.3,0.7c-0.2,0.4-0.3,0.7-0.3,0.9
		c0,0.5-1.5,2.5-2.2,2.9c-1.4,0.8-3.6,0.5-4.9-0.7l-0.4-0.3l-0.3,0.4c-0.2,0.2-0.5,0.7-0.7,1.1l-0.4,0.7l0.4,0.4
		c1.2,1.3,5.2,1.8,7.2,1c0.9-0.4,2.7-1.9,2.7-2.2c0-0.1,0.1-0.3,0.2-0.4c0.1-0.1,0.7-1.3,1.3-2.5c0.6-1.2,1.3-2.8,1.6-3.5
		c0.3-0.7,0.6-1.3,0.6-1.4c0-0.1,0.2-0.5,0.4-0.9c0.2-0.4,0.6-1.2,0.8-1.7c0.2-0.5,0.5-1.2,0.7-1.7c0.2-0.5,0.7-1.6,1.2-2.6
		c0.4-1,1.1-2.4,1.4-3.2c0.4-0.8,0.9-2.1,1.3-3c0.4-0.9,0.9-2,1.1-2.4c0.5-1,0.4-1.1-1.1-1.1c-1.3,0-1.6,0.1-1.9,0.9
		c-0.1,0.3-0.5,1.2-0.9,2s-0.9,2.1-1.2,2.8s-0.8,1.9-1.1,2.6c-0.3,0.7-0.9,2-1.3,2.9s-1,2.2-1.3,3c-0.4,0.8-0.6,1.5-0.6,1.6
		s-0.1,0.3-0.1,0.3c-0.1,0.1-0.3-0.4-1.7-3.5c-0.4-0.8-0.9-2.1-1.3-2.8c-0.7-1.7-1.7-3.8-2.4-5.5c-0.3-0.7-0.9-2-1.3-2.8l-0.7-1.5
		H171C170,44.7,169.6,44.7,169.6,44.9 M246.3,44.9c-6,1.3-9.1,8.5-6.2,14.4c3.5,7.1,14.4,7.1,17.8,0
		C261.9,51.1,255.3,42.9,246.3,44.9 M292.9,44.8c-2.9,0.4-5.3,2-4.8,3.1c0.4,0.9,1.1,1.7,1.2,1.4c1.3-1.8,6.8-2.8,8.9-1.8
		c1.7,0.9,2.4,1.9,2.5,4.1l0.1,1.5h-3.4c-4.7,0-7.1,0.4-8,1.2c-0.1,0.1-0.4,0.4-0.7,0.5c-1.9,1.2-2,5.7-0.3,7.6
		c2.6,2.8,9.1,2.8,11.8,0l0.7-0.7v1.4v1.4l1.4,0l1.4,0l0-6.9c0-4.8-0.1-7.1-0.2-7.5c-0.1-0.3-0.3-0.9-0.4-1.3
		C302.4,45.7,298.1,44,292.9,44.8 M341.4,44.8c-0.2,0.1-0.2,2.2-0.2,9.9l0,9.7l1.4,0l1.4,0l0.1-6.1c0.1-6.4,0.1-7,0.9-8.2
		c2.4-3.6,7.7-4,10.2-0.8c0.9,1.2,1,1.9,1.1,8.9l0.1,6.3h1.4h1.4l-0.1-7l-0.1-7l-0.5-1.3c-1.9-5.1-9.8-6.5-13.9-2.4l-0.9,0.9l0-1.5
		l0-1.5l-1.2,0C342.1,44.7,341.5,44.7,341.4,44.8 M371.8,44.8c-7.5,1.3-10.1,11.9-4.3,17.2c4,3.7,11.1,3.3,14.2-0.8
		c0.6-0.7,0.6-0.8-0.6-1.5c-1.2-0.8-1-0.8-1.9,0.1c-4.3,4.7-11.9,1.2-11.9-5.4c0-6.8,7.7-10.1,12.1-5.2c0.6,0.7,1,0.7,2.2-0.4
		l0.6-0.5l-0.3-0.5C380.2,45.4,376.1,44.1,371.8,44.8 M252.2,47.9c5.3,2.7,5.1,11.2-0.4,13.4c-6.2,2.6-11.7-3.3-9.2-9.9
		C244,47.8,248.6,46.1,252.2,47.9 M276.9,47.8c6.1,3.2,5.3,12.2-1.3,13.9c-5.8,1.6-10.6-4.9-7.9-10.6
		C269.3,47.7,273.6,46.1,276.9,47.8 M101.5,56.8c0,3.2-2.3,5.2-6.1,5.2c-3.2,0-4.9-1.4-4.7-3.6c0.2-2.5,1.8-3.1,7.8-3.1l3,0V56.8
		 M148.2,56.8c0,1.7-0.4,2.7-1.7,3.8c-3.4,2.9-9.4,1.5-9.1-2.1c0.2-2.5,1.8-3.1,7.8-3.1l3,0V56.8 M300.8,56.8c0,1.8-0.1,2.1-1.1,3.3
		c-3.4,4-11.3,1.8-9.4-2.6c0.7-1.7,2.1-2.1,7.5-2.1l3,0V56.8 M387.4,60.4c-2.5,0.7-1.5,4.7,1,4.2c1.7-0.3,2.3-3,0.8-3.9
		C388.6,60.3,388,60.2,387.4,60.4"/>
</g>
</svg>
